<?xml version="1.0" standalone="no"?><!DOCTYPE svg PUBLIC "-//W3C//DTD SVG 1.1//EN" "http://www.w3.org/Graphics/SVG/1.1/DTD/svg11.dtd"><svg t="1637500314105" class="icon" viewBox="0 0 1024 1024" version="1.1" xmlns="http://www.w3.org/2000/svg" p-id="3937" xmlns:xlink="http://www.w3.org/1999/xlink" width="200" height="200"><defs><style type="text/css"></style></defs><path d="M800 149.333333A138.666667 138.666667 0 0 1 938.666667 288v448.128a138.666667 138.666667 0 0 1-138.666667 138.666667H224A138.666667 138.666667 0 0 1 85.333333 736.128V288.042667A138.666667 138.666667 0 0 1 224 149.333333h576zM341.973333 378.581333c-69.418667 0-117.504 60.16-117.504 133.205334 0 73.130667 48.128 133.376 117.504 133.376 37.845333 0 72.661333-18.218667 90.069334-51.797334l3.285333-6.912 0.981333-2.986666 0.768-3.157334 0.341334-3.541333v-64.853333l-0.298667-3.968a26.666667 26.666667 0 0 0-22.016-22.357334l-4.352-0.384H368l-3.925333 0.298667a26.666667 26.666667 0 0 0-22.357334 22.016L341.333333 511.829333l0.298667 3.968c1.706667 11.434667 10.666667 20.48 22.016 22.357334l4.352 0.341333h16.042667v31.317333l-0.256 0.597334c-8.064 13.696-23.552 21.376-41.813334 21.376-36.949333 0-64.170667-34.090667-64.170666-80.042667 0-45.909333 27.178667-79.872 64.170666-79.872 17.962667 0 28.16 1.962667 40.96 8.106667a26.666667 26.666667 0 1 0 23.125334-48.085334c-20.608-9.898667-38.613333-13.354667-64.085334-13.354666z m196.864 5.205334a26.666667 26.666667 0 0 0-26.368 22.741333l-0.298666 3.925333v203.178667l0.298666 3.925333a26.666667 26.666667 0 0 0 52.736 0l0.298667-3.925333V410.453333l-0.298667-3.925333a26.666667 26.666667 0 0 0-26.368-22.741333zM751.872 384l-85.205333-0.298667a26.666667 26.666667 0 0 0-26.453334 22.613334l-0.298666 3.968v202.581333l0.256 3.925333c1.706667 11.434667 10.666667 20.48 22.016 22.4l4.394666 0.341334 3.925334-0.298667c11.434667-1.706667 20.48-10.666667 22.357333-22.016l0.384-4.352-0.042667-47.573333h47.914667l3.925333-0.256c11.434667-1.706667 20.48-10.666667 22.4-22.016l0.341334-4.394667-0.298667-3.925333a26.666667 26.666667 0 0 0-22.016-22.357334L741.12 512h-47.914667v-74.88l58.453334 0.256 3.968-0.298667a26.666667 26.666667 0 0 0 0.213333-52.736L751.872 384l-85.205333-0.298667L751.872 384z" p-id="3938" fill="#1296db"></path></svg>